# xmcd
#
# Track frame offsets: 
#        150
#        28364
#        50998
#        74408
#        98547
#        116066
#        175057
#        181261
#        205877
#        236940
#        261574
#        279122
#
# Disc length: 4134 seconds
#
# Revision: 2
# Processed by: cddbd v1.5.2PL0 Copyright (c) Steve Scherf et al.
# Submitted via: ExactAudioCopy v0.99pb5
#
DISCID=b710240c
DTITLE=Royal Southern Brotherhood - Songs From The Road
DYEAR=2013
DGENRE=Blues
TTITLE0=Fired Up
TTITLE1=Hurts My Heart
TTITLE2=Gotta Keep Rockin'
TTITLE3=Moonlight Over The Mississippi
TTITLE4=Left My Heart In Memphis
TTITLE5=Fire On The Mountain
TTITLE6=Band Introductions
TTITLE7=Ways About You
TTITLE8=Sweet Jelly Donut
TTITLE9=New Horizons
TTITLE10=All Around The World
TTITLE11=Gimme Shelter
EXTD=
EXTT0=
EXTT1=
EXTT2=
EXTT3=
EXTT4=
EXTT5=
EXTT6=
EXTT7=
EXTT8=
EXTT9=
EXTT10=
EXTT11=
PLAYORDER=
